<svg xmlns="http://www.w3.org/2000/svg" xmlns:xlink="http://www.w3.org/1999/xlink" contentStyleType="text/css" data-diagram-type="CLASS" height="800px" preserveAspectRatio="none" style="width:1962px;height:800px;background:#FFFFFF;" version="1.1" viewBox="0 0 1962 800" width="1962px" zoomAndPan="magnify"><defs/><g><!--cluster Findirector--><g class="cluster" data-entity="Findirector" data-source-line="6" data-uid="ent0004" id="cluster_Findirector"><path d="M16.5,4 L96.1133,4 A3.75,3.75 0 0 1 98.6133,6.5 L105.6133,26.4883 L1952.5,26.4883 A2.5,2.5 0 0 1 1955,28.9883 L1955,790.5 A2.5,2.5 0 0 1 1952.5,793 L16.5,793 A2.5,2.5 0 0 1 14,790.5 L14,6.5 A2.5,2.5 0 0 1 16.5,4" fill="none" style="stroke:#000000;stroke-width:1.5;"/><line style="stroke:#000000;stroke-width:1.5;" x1="14" x2="105.6133" y1="26.4883" y2="26.4883"/><text fill="#000000" font-family="sans-serif" font-size="14" font-weight="bold" lengthAdjust="spacing" textLength="78.6133" x="18" y="19.5352">Findirector</text></g><!--cluster Domain--><g class="cluster" data-entity="Domain" data-source-line="5" data-uid="ent0002" id="cluster_Domain"><path d="M869.5,368 L926.0967,368 A3.75,3.75 0 0 1 928.5967,370.5 L935.5967,390.4883 L1944.5,390.4883 A2.5,2.5 0 0 1 1947,392.9883 L1947,782.5 A2.5,2.5 0 0 1 1944.5,785 L869.5,785 A2.5,2.5 0 0 1 867,782.5 L867,370.5 A2.5,2.5 0 0 1 869.5,368" fill="none" style="stroke:#000000;stroke-width:1.5;"/><line style="stroke:#000000;stroke-width:1.5;" x1="867" x2="935.5967" y1="390.4883" y2="390.4883"/><text fill="#000000" font-family="sans-serif" font-size="14" font-weight="bold" lengthAdjust="spacing" textLength="55.5967" x="871" y="383.5352">Domain</text></g><!--cluster Application--><g class="cluster" data-entity="Application" data-source-line="44" data-uid="ent0009" id="cluster_Application"><path d="M324.5,31 L407.5107,31 A3.75,3.75 0 0 1 410.0107,33.5 L417.0107,53.4883 L856.5,53.4883 A2.5,2.5 0 0 1 859,55.9883 L859,498 A2.5,2.5 0 0 1 856.5,500.5 L324.5,500.5 A2.5,2.5 0 0 1 322,498 L322,33.5 A2.5,2.5 0 0 1 324.5,31" fill="none" style="stroke:#000000;stroke-width:1.5;"/><line style="stroke:#000000;stroke-width:1.5;" x1="322" x2="417.0107" y1="53.4883" y2="53.4883"/><text fill="#000000" font-family="sans-serif" font-size="14" font-weight="bold" lengthAdjust="spacing" textLength="82.0107" x="326" y="46.5352">Application</text></g><!--cluster Infrastructure--><g class="cluster" data-entity="Infrastructure" data-source-line="69" data-uid="ent0014" id="cluster_Infrastructure"><path d="M24.5,39 L125.7695,39 A3.75,3.75 0 0 1 128.2695,41.5 L135.2695,61.4883 L311.5,61.4883 A2.5,2.5 0 0 1 314,63.9883 L314,177.5 A2.5,2.5 0 0 1 311.5,180 L24.5,180 A2.5,2.5 0 0 1 22,177.5 L22,41.5 A2.5,2.5 0 0 1 24.5,39" fill="none" style="stroke:#000000;stroke-width:1.5;"/><line style="stroke:#000000;stroke-width:1.5;" x1="22" x2="135.2695" y1="61.4883" y2="61.4883"/><text fill="#000000" font-family="sans-serif" font-size="14" font-weight="bold" lengthAdjust="spacing" textLength="100.2695" x="26" y="54.5352">Infrastructure</text></g><!--class FinancialPlan--><g class="entity" data-entity="FinancialPlan" data-source-line="6" data-uid="ent0003" id="entity_FinancialPlan"><rect fill="#F1F1F1" height="122.4414" rx="2.5" ry="2.5" style="stroke:#181818;stroke-width:0.5;" width="272.5996" x="875.5" y="395"/><ellipse cx="963.6187" cy="411" fill="#ADD1B2" rx="11" ry="11" style="stroke:#181818;stroke-width:1;"/><path d="M966.0918,417.1431 Q965.5107,417.4419 964.8716,417.5913 Q964.2324,417.7407 963.5269,417.7407 Q961.02,417.7407 959.7002,416.0889 Q958.3804,414.437 958.3804,411.3159 Q958.3804,408.1865 959.7002,406.5347 Q961.02,404.8828 963.5269,404.8828 Q964.2324,404.8828 964.8799,405.0322 Q965.5273,405.1816 966.0918,405.4805 L966.0918,408.2031 Q965.4609,407.6221 964.8674,407.3523 Q964.2739,407.0825 963.6431,407.0825 Q962.2983,407.0825 961.6135,408.1492 Q960.9287,409.2158 960.9287,411.3159 Q960.9287,413.4077 961.6135,414.4744 Q962.2983,415.541 963.6431,415.541 Q964.2739,415.541 964.8674,415.2712 Q965.4609,415.0015 966.0918,414.4204 Z " fill="#000000"/><text fill="#000000" font-family="sans-serif" font-size="14" lengthAdjust="spacing" textLength="87.8623" x="984.1187" y="416.291">FinancialPlan</text><line style="stroke:#181818;stroke-width:0.5;" x1="876.5" x2="1147.0996" y1="427" y2="427"/><text fill="#000000" font-family="sans-serif" font-size="14" lengthAdjust="spacing" text-decoration="underline" textLength="155.4014" x="881.5" y="444.5352">+MonthCount : int = 3</text><text fill="#000000" font-family="sans-serif" font-size="14" lengthAdjust="spacing" textLength="68.9268" x="881.5" y="461.0234">+Id : Guid</text><text fill="#000000" font-family="sans-serif" font-size="14" lengthAdjust="spacing" textLength="102.9287" x="881.5" y="477.5117">+Name : string</text><text fill="#000000" font-family="sans-serif" font-size="14" lengthAdjust="spacing" textLength="167.9795" x="881.5" y="494">+OpeningCash : decimal</text><text fill="#000000" font-family="sans-serif" font-size="14" lengthAdjust="spacing" textLength="260.5996" x="881.5" y="510.4883">+Months : IReadOnlyList&lt;MonthPlan&gt;</text></g><!--class MonthPlan--><g class="entity" data-entity="MonthPlan" data-source-line="13" data-uid="ent0005" id="entity_MonthPlan"><rect fill="#F1F1F1" height="122.4414" rx="2.5" ry="2.5" style="stroke:#181818;stroke-width:0.5;" width="163.6416" x="1062" y="613.5"/><ellipse cx="1104.0743" cy="629.5" fill="#ADD1B2" rx="11" ry="11" style="stroke:#181818;stroke-width:1;"/><path d="M1106.5474,635.6431 Q1105.9664,635.9419 1105.3272,636.0913 Q1104.688,636.2407 1103.9825,636.2407 Q1101.4756,636.2407 1100.1558,634.5889 Q1098.836,632.937 1098.836,629.8159 Q1098.836,626.6865 1100.1558,625.0347 Q1101.4756,623.3828 1103.9825,623.3828 Q1104.688,623.3828 1105.3355,623.5322 Q1105.983,623.6816 1106.5474,623.9805 L1106.5474,626.7031 Q1105.9166,626.1221 1105.323,625.8523 Q1104.7295,625.5825 1104.0987,625.5825 Q1102.754,625.5825 1102.0691,626.6492 Q1101.3843,627.7158 1101.3843,629.8159 Q1101.3843,631.9077 1102.0691,632.9744 Q1102.754,634.041 1104.0987,634.041 Q1104.7295,634.041 1105.323,633.7712 Q1105.9166,633.5015 1106.5474,632.9204 Z " fill="#000000"/><text fill="#000000" font-family="sans-serif" font-size="14" lengthAdjust="spacing" textLength="71.4766" x="1124.0908" y="634.791">MonthPlan</text><line style="stroke:#181818;stroke-width:0.5;" x1="1063" x2="1224.6416" y1="645.5" y2="645.5"/><text fill="#000000" font-family="sans-serif" font-size="14" lengthAdjust="spacing" textLength="100.208" x="1068" y="663.0352">+Quantity : int</text><text fill="#000000" font-family="sans-serif" font-size="14" lengthAdjust="spacing" textLength="109.5801" x="1068" y="679.5234">+Price : decimal</text><text fill="#000000" font-family="sans-serif" font-size="14" lengthAdjust="spacing" textLength="135.4268" x="1068" y="696.0117">+UnitCost : decimal</text><text fill="#000000" font-family="sans-serif" font-size="14" lengthAdjust="spacing" textLength="151.6416" x="1068" y="712.5">+FixedCosts : decimal</text><text fill="#000000" font-family="sans-serif" font-size="14" lengthAdjust="spacing" textLength="150.6094" x="1068" y="728.9883">+PaidNowPercent : int</text></g><!--class MonthCalculator--><g class="entity" data-entity="MonthCalculator" data-source-line="20" data-uid="ent0006" id="entity_MonthCalculator"><rect fill="#F1F1F1" height="56.4883" rx="2.5" ry="2.5" style="stroke:#181818;stroke-width:0.5;" width="465.373" x="1473.5" y="428"/><ellipse cx="1645.9673" cy="444" fill="#ADD1B2" rx="11" ry="11" style="stroke:#181818;stroke-width:1;"/><path d="M1648.4404,450.1431 Q1647.8594,450.4419 1647.2202,450.5913 Q1646.5811,450.7407 1645.8755,450.7407 Q1643.3687,450.7407 1642.0488,449.0889 Q1640.729,447.437 1640.729,444.3159 Q1640.729,441.1865 1642.0488,439.5347 Q1643.3687,437.8828 1645.8755,437.8828 Q1646.5811,437.8828 1647.2285,438.0322 Q1647.876,438.1816 1648.4404,438.4805 L1648.4404,441.2031 Q1647.8096,440.6221 1647.2161,440.3523 Q1646.6226,440.0825 1645.9917,440.0825 Q1644.647,440.0825 1643.9622,441.1492 Q1643.2773,442.2158 1643.2773,444.3159 Q1643.2773,446.4077 1643.9622,447.4744 Q1644.647,448.541 1645.9917,448.541 Q1646.6226,448.541 1647.2161,448.2712 Q1647.8096,448.0015 1648.4404,447.4204 Z " fill="#000000"/><text fill="#000000" font-family="sans-serif" font-size="14" lengthAdjust="spacing" textLength="111.9385" x="1666.4673" y="449.291">MonthCalculator</text><line style="stroke:#181818;stroke-width:0.5;" x1="1474.5" x2="1937.873" y1="460" y2="460"/><text fill="#000000" font-family="sans-serif" font-size="14" lengthAdjust="spacing" textLength="453.373" x="1479.5" y="477.5352">+Calculate(plan, openingCash, openingReceivables) : MonthReport</text></g><!--class MonthReport--><g class="entity" data-entity="MonthReport" data-source-line="23" data-uid="ent0007" id="entity_MonthReport"><rect fill="#F1F1F1" height="204.8828" rx="2.5" ry="2.5" style="stroke:#181818;stroke-width:0.5;" width="234.6943" x="1288.5" y="572"/><ellipse cx="1357.4473" cy="588" fill="#ADD1B2" rx="11" ry="11" style="stroke:#181818;stroke-width:1;"/><path d="M1359.9204,594.1431 Q1359.3394,594.4419 1358.7002,594.5913 Q1358.061,594.7407 1357.3555,594.7407 Q1354.8486,594.7407 1353.5288,593.0889 Q1352.209,591.437 1352.209,588.3159 Q1352.209,585.1865 1353.5288,583.5347 Q1354.8486,581.8828 1357.3555,581.8828 Q1358.061,581.8828 1358.7085,582.0322 Q1359.356,582.1816 1359.9204,582.4805 L1359.9204,585.2031 Q1359.2896,584.6221 1358.696,584.3523 Q1358.1025,584.0825 1357.4717,584.0825 Q1356.127,584.0825 1355.4421,585.1492 Q1354.7573,586.2158 1354.7573,588.3159 Q1354.7573,590.4077 1355.4421,591.4744 Q1356.127,592.541 1357.4717,592.541 Q1358.1025,592.541 1358.696,592.2712 Q1359.2896,592.0015 1359.9204,591.4204 Z " fill="#000000"/><text fill="#000000" font-family="sans-serif" font-size="14" lengthAdjust="spacing" textLength="88.2998" x="1377.9473" y="593.291">MonthReport</text><line style="stroke:#181818;stroke-width:0.5;" x1="1289.5" x2="1522.1943" y1="604" y2="604"/><text fill="#000000" font-family="sans-serif" font-size="14" lengthAdjust="spacing" textLength="133.9707" x="1294.5" y="621.5352">+Revenue : decimal</text><text fill="#000000" font-family="sans-serif" font-size="14" lengthAdjust="spacing" textLength="169.9414" x="1294.5" y="638.0234">+VariableCosts : decimal</text><text fill="#000000" font-family="sans-serif" font-size="14" lengthAdjust="spacing" textLength="151.6416" x="1294.5" y="654.5117">+FixedCosts : decimal</text><text fill="#000000" font-family="sans-serif" font-size="14" lengthAdjust="spacing" textLength="124.0791" x="1294.5" y="671">+Margin : decimal</text><text fill="#000000" font-family="sans-serif" font-size="14" lengthAdjust="spacing" textLength="167.1934" x="1294.5" y="687.4883">+CashReceipts : decimal</text><text fill="#000000" font-family="sans-serif" font-size="14" lengthAdjust="spacing" textLength="161.2734" x="1294.5" y="703.9766">+ClosingCash : decimal</text><text fill="#000000" font-family="sans-serif" font-size="14" lengthAdjust="spacing" textLength="206.4727" x="1294.5" y="720.4648">+ClosingReceivables : decimal</text><text fill="#000000" font-family="sans-serif" font-size="14" lengthAdjust="spacing" textLength="204.4219" x="1294.5" y="736.9531">+Expenses : decimal {derived}</text><text fill="#000000" font-family="sans-serif" font-size="14" lengthAdjust="spacing" textLength="177.3721" x="1294.5" y="753.4414">+Profit : decimal {derived}</text><text fill="#000000" font-family="sans-serif" font-size="14" lengthAdjust="spacing" textLength="222.6943" x="1294.5" y="769.9297">+FundingGap : decimal {derived}</text></g><!--class PlanForecast--><g class="entity" data-entity="PlanForecast" data-source-line="35" data-uid="ent0008" id="entity_PlanForecast"><rect fill="#F1F1F1" height="122.4414" rx="2.5" ry="2.5" style="stroke:#181818;stroke-width:0.5;" width="289.4229" x="1166.5" y="395"/><ellipse cx="1264.4043" cy="411" fill="#ADD1B2" rx="11" ry="11" style="stroke:#181818;stroke-width:1;"/><path d="M1266.8774,417.1431 Q1266.2964,417.4419 1265.6572,417.5913 Q1265.0181,417.7407 1264.3125,417.7407 Q1261.8057,417.7407 1260.4858,416.0889 Q1259.166,414.437 1259.166,411.3159 Q1259.166,408.1865 1260.4858,406.5347 Q1261.8057,404.8828 1264.3125,404.8828 Q1265.0181,404.8828 1265.6655,405.0322 Q1266.313,405.1816 1266.8774,405.4805 L1266.8774,408.2031 Q1266.2466,407.6221 1265.6531,407.3523 Q1265.0596,407.0825 1264.4287,407.0825 Q1263.084,407.0825 1262.3992,408.1492 Q1261.7144,409.2158 1261.7144,411.3159 Q1261.7144,413.4077 1262.3992,414.4744 Q1263.084,415.541 1264.4287,415.541 Q1265.0596,415.541 1265.6531,415.2712 Q1266.2466,415.0015 1266.8774,414.4204 Z " fill="#000000"/><text fill="#000000" font-family="sans-serif" font-size="14" lengthAdjust="spacing" textLength="85.1143" x="1284.9043" y="416.291">PlanForecast</text><line style="stroke:#181818;stroke-width:0.5;" x1="1167.5" x2="1454.9229" y1="427" y2="427"/><text fill="#000000" font-family="sans-serif" font-size="14" lengthAdjust="spacing" textLength="277.4229" x="1172.5" y="444.5352">+Months : IReadOnlyList&lt;MonthReport&gt;</text><text fill="#000000" font-family="sans-serif" font-size="14" lengthAdjust="spacing" textLength="211.8389" x="1172.5" y="461.0234">+TotalProfit : decimal {derived}</text><text fill="#000000" font-family="sans-serif" font-size="14" lengthAdjust="spacing" textLength="206.1377" x="1172.5" y="477.5117">+FinalCash : decimal {derived}</text><text fill="#000000" font-family="sans-serif" font-size="14" lengthAdjust="spacing" textLength="251.3369" x="1172.5" y="494">+FinalReceivables : decimal {derived}</text><text fill="#000000" font-family="sans-serif" font-size="14" lengthAdjust="spacing" textLength="230.7881" x="1172.5" y="510.4883">+FundingNeed : decimal {derived}</text></g><!--class PlanService--><g class="entity" data-entity="PlanService" data-source-line="45" data-uid="ent0010" id="entity_PlanService"><rect fill="#F1F1F1" height="122.4414" rx="2.5" ry="2.5" style="stroke:#181818;stroke-width:0.5;" width="301.6182" x="549" y="58"/><ellipse cx="657.7905" cy="74" fill="#ADD1B2" rx="11" ry="11" style="stroke:#181818;stroke-width:1;"/><path d="M660.2637,80.1431 Q659.6826,80.4419 659.0435,80.5913 Q658.4043,80.7407 657.6987,80.7407 Q655.1919,80.7407 653.8721,79.0889 Q652.5522,77.437 652.5522,74.3159 Q652.5522,71.1865 653.8721,69.5347 Q655.1919,67.8828 657.6987,67.8828 Q658.4043,67.8828 659.0518,68.0322 Q659.6992,68.1816 660.2637,68.4805 L660.2637,71.2031 Q659.6328,70.6221 659.0393,70.3523 Q658.4458,70.0825 657.8149,70.0825 Q656.4702,70.0825 655.7854,71.1492 Q655.1006,72.2158 655.1006,74.3159 Q655.1006,76.4077 655.7854,77.4744 Q656.4702,78.541 657.8149,78.541 Q658.4458,78.541 659.0393,78.2712 Q659.6328,78.0015 660.2637,77.4204 Z " fill="#000000"/><text fill="#000000" font-family="sans-serif" font-size="14" lengthAdjust="spacing" textLength="75.5371" x="678.2905" y="79.291">PlanService</text><line style="stroke:#181818;stroke-width:0.5;" x1="550" x2="849.6182" y1="90" y2="90"/><text fill="#000000" font-family="sans-serif" font-size="14" lengthAdjust="spacing" textLength="204.8252" x="555" y="107.5352">+Forecast(plan) : PlanForecast</text><text fill="#000000" font-family="sans-serif" font-size="14" lengthAdjust="spacing" textLength="289.6182" x="555" y="124.0234">+Compare(first, second) : PlanComparison</text><text fill="#000000" font-family="sans-serif" font-size="14" lengthAdjust="spacing" textLength="79.8301" x="555" y="140.5117">+Save(plan)</text><text fill="#000000" font-family="sans-serif" font-size="14" lengthAdjust="spacing" textLength="263.0537" x="555" y="157">+List() : IReadOnlyList&lt;PlanSummary&gt;</text><text fill="#000000" font-family="sans-serif" font-size="14" lengthAdjust="spacing" textLength="170.4199" x="555" y="173.4883">+Open(id) : FinancialPlan</text></g><!--class IPlanRepository--><g class="entity" data-entity="IPlanRepository" data-source-line="52" data-uid="ent0011" id="entity_IPlanRepository"><rect fill="#F1F1F1" height="89.4648" rx="2.5" ry="2.5" style="stroke:#181818;stroke-width:0.5;" width="275.0537" x="330.5" y="243.5"/><ellipse cx="411.5947" cy="259.5" fill="#B4A7E5" rx="11" ry="11" style="stroke:#181818;stroke-width:1;"/><path d="M408.0225,255.7651 L408.0225,253.6069 L415.4019,253.6069 L415.4019,255.7651 L412.9365,255.7651 L412.9365,263.8418 L415.4019,263.8418 L415.4019,266 L408.0225,266 L408.0225,263.8418 L410.4878,263.8418 L410.4878,255.7651 Z " fill="#000000"/><text fill="#000000" font-family="sans-serif" font-size="14" font-style="italic" lengthAdjust="spacing" textLength="104.3643" x="432.0947" y="264.791">IPlanRepository</text><line style="stroke:#181818;stroke-width:0.5;" x1="331.5" x2="604.5537" y1="275.5" y2="275.5"/><text fill="#000000" font-family="sans-serif" font-size="14" lengthAdjust="spacing" textLength="79.8301" x="336.5" y="293.0352">+Save(plan)</text><text fill="#000000" font-family="sans-serif" font-size="14" lengthAdjust="spacing" textLength="263.0537" x="336.5" y="309.5234">+List() : IReadOnlyList&lt;PlanSummary&gt;</text><text fill="#000000" font-family="sans-serif" font-size="14" lengthAdjust="spacing" textLength="163.3037" x="336.5" y="326.0117">+Get(id) : FinancialPlan?</text></g><!--class PlanComparison--><g class="entity" data-entity="PlanComparison" data-source-line="57" data-uid="ent0012" id="entity_PlanComparison"><rect fill="#F1F1F1" height="105.9531" rx="2.5" ry="2.5" style="stroke:#181818;stroke-width:0.5;" width="227.0518" x="623.5" y="235"/><ellipse cx="677.6235" cy="251" fill="#ADD1B2" rx="11" ry="11" style="stroke:#181818;stroke-width:1;"/><path d="M680.0967,257.1431 Q679.5156,257.4419 678.8765,257.5913 Q678.2373,257.7407 677.5317,257.7407 Q675.0249,257.7407 673.7051,256.0889 Q672.3853,254.437 672.3853,251.3159 Q672.3853,248.1865 673.7051,246.5347 Q675.0249,244.8828 677.5317,244.8828 Q678.2373,244.8828 678.8848,245.0322 Q679.5322,245.1816 680.0967,245.4805 L680.0967,248.2031 Q679.4658,247.6221 678.8723,247.3523 Q678.2788,247.0825 677.6479,247.0825 Q676.3032,247.0825 675.6184,248.1492 Q674.9336,249.2158 674.9336,251.3159 Q674.9336,253.4077 675.6184,254.4744 Q676.3032,255.541 677.6479,255.541 Q678.2788,255.541 678.8723,255.2712 Q679.4658,255.0015 680.0967,254.4204 Z " fill="#000000"/><text fill="#000000" font-family="sans-serif" font-size="14" lengthAdjust="spacing" textLength="110.3047" x="698.1235" y="256.291">PlanComparison</text><line style="stroke:#181818;stroke-width:0.5;" x1="624.5" x2="849.5518" y1="267" y2="267"/><text fill="#000000" font-family="sans-serif" font-size="14" lengthAdjust="spacing" textLength="141.9346" x="629.5" y="284.5352">+First : FinancialPlan</text><text fill="#000000" font-family="sans-serif" font-size="14" lengthAdjust="spacing" textLength="196.0957" x="629.5" y="301.0234">+FirstForecast : PlanForecast</text><text fill="#000000" font-family="sans-serif" font-size="14" lengthAdjust="spacing" textLength="160.8906" x="629.5" y="317.5117">+Second : FinancialPlan</text><text fill="#000000" font-family="sans-serif" font-size="14" lengthAdjust="spacing" textLength="215.0518" x="629.5" y="334">+SecondForecast : PlanForecast</text></g><!--class PlanSummary--><g class="entity" data-entity="PlanSummary" data-source-line="63" data-uid="ent0013" id="entity_PlanSummary"><rect fill="#F1F1F1" height="72.9766" rx="2.5" ry="2.5" style="stroke:#181818;stroke-width:0.5;" width="123.3486" x="406.5" y="419.5"/><ellipse cx="421.5" cy="435.5" fill="#ADD1B2" rx="11" ry="11" style="stroke:#181818;stroke-width:1;"/><path d="M423.9731,441.6431 Q423.3921,441.9419 422.7529,442.0913 Q422.1138,442.2407 421.4082,442.2407 Q418.9014,442.2407 417.5815,440.5889 Q416.2617,438.937 416.2617,435.8159 Q416.2617,432.6865 417.5815,431.0347 Q418.9014,429.3828 421.4082,429.3828 Q422.1138,429.3828 422.7612,429.5322 Q423.4087,429.6816 423.9731,429.9805 L423.9731,432.7031 Q423.3423,432.1221 422.7488,431.8523 Q422.1553,431.5825 421.5244,431.5825 Q420.1797,431.5825 419.4949,432.6492 Q418.8101,433.7158 418.8101,435.8159 Q418.8101,437.9077 419.4949,438.9744 Q420.1797,440.041 421.5244,440.041 Q422.1553,440.041 422.7488,439.7712 Q423.3423,439.5015 423.9731,438.9204 Z " fill="#000000"/><text fill="#000000" font-family="sans-serif" font-size="14" lengthAdjust="spacing" textLength="91.3486" x="435.5" y="440.791">PlanSummary</text><line style="stroke:#181818;stroke-width:0.5;" x1="407.5" x2="528.8486" y1="451.5" y2="451.5"/><text fill="#000000" font-family="sans-serif" font-size="14" lengthAdjust="spacing" textLength="68.9268" x="412.5" y="469.0352">+Id : Guid</text><text fill="#000000" font-family="sans-serif" font-size="14" lengthAdjust="spacing" textLength="102.9287" x="412.5" y="485.5234">+Name : string</text></g><!--class SqlitePlanRepository--><g class="entity" data-entity="SqlitePlanRepository" data-source-line="70" data-uid="ent0015" id="entity_SqlitePlanRepository"><rect fill="#F1F1F1" height="105.9531" rx="2.5" ry="2.5" style="stroke:#181818;stroke-width:0.5;" width="275.0537" x="30.5" y="66"/><ellipse cx="94.8706" cy="82" fill="#ADD1B2" rx="11" ry="11" style="stroke:#181818;stroke-width:1;"/><path d="M97.3438,88.1431 Q96.7627,88.4419 96.1235,88.5913 Q95.4844,88.7407 94.7788,88.7407 Q92.272,88.7407 90.9521,87.0889 Q89.6323,85.437 89.6323,82.3159 Q89.6323,79.1865 90.9521,77.5347 Q92.272,75.8828 94.7788,75.8828 Q95.4844,75.8828 96.1318,76.0322 Q96.7793,76.1816 97.3438,76.4805 L97.3438,79.2031 Q96.7129,78.6221 96.1194,78.3523 Q95.5259,78.0825 94.895,78.0825 Q93.5503,78.0825 92.8655,79.1492 Q92.1807,80.2158 92.1807,82.3159 Q92.1807,84.4077 92.8655,85.4744 Q93.5503,86.541 94.895,86.541 Q95.5259,86.541 96.1194,86.2712 Q96.7129,86.0015 97.3438,85.4204 Z " fill="#000000"/><text fill="#000000" font-family="sans-serif" font-size="14" lengthAdjust="spacing" textLength="137.8125" x="115.3706" y="87.291">SqlitePlanRepository</text><line style="stroke:#181818;stroke-width:0.5;" x1="31.5" x2="304.5537" y1="98" y2="98"/><text fill="#000000" font-family="sans-serif" font-size="14" lengthAdjust="spacing" textLength="248.4316" x="36.5" y="115.5352">+SqlitePlanRepository(databasePath)</text><text fill="#000000" font-family="sans-serif" font-size="14" lengthAdjust="spacing" textLength="79.8301" x="36.5" y="132.0234">+Save(plan)</text><text fill="#000000" font-family="sans-serif" font-size="14" lengthAdjust="spacing" textLength="263.0537" x="36.5" y="148.5117">+List() : IReadOnlyList&lt;PlanSummary&gt;</text><text fill="#000000" font-family="sans-serif" font-size="14" lengthAdjust="spacing" textLength="163.3037" x="36.5" y="165">+Get(id) : FinancialPlan?</text></g><g class="link" data-entity-1="SqlitePlanRepository" data-entity-2="IPlanRepository" data-uid="lnk16" id="link_SqlitePlanRepository_IPlanRepository"><polygon fill="none" points="389.6293,243.3736,376.8202,229.3762,370.9836,239.8612,389.6293,243.3736" style="stroke:#181818;stroke-width:1;"/><path d="M261.6879,172.1529 C302.7769,195.0258 334.7334,212.8149 373.9019,234.6187" fill="none" style="stroke:#181818;stroke-width:1;stroke-dasharray:7,7;"/></g><g class="link" data-entity-1="FinancialPlan" data-entity-2="MonthPlan" data-uid="lnk17" id="link_FinancialPlan_MonthPlan"><polygon fill="#181818" points="1048.5941,517.0198,1048.3022,524.225,1054.8409,527.2656,1055.1328,520.0604,1048.5941,517.0198" style="stroke:#181818;stroke-width:1;"/><path d="M1054.8409,527.2656 C1073.1525,557.2994 1089.0133,583.3135 1107.3347,613.3634" fill="none" style="stroke:#181818;stroke-width:1;"/><text fill="#000000" font-family="sans-serif" font-size="13" lengthAdjust="spacing" textLength="93.2979" x="1073" y="549.5684">&#1084;&#1077;&#1089;&#1103;&#1094;&#1099; 1, 2, 3</text><text fill="#000000" font-family="sans-serif" font-size="13" lengthAdjust="spacing" textLength="8.2202" x="1098.3347" y="609.9318">3</text></g><g class="link" data-entity-1="PlanForecast" data-entity-2="MonthReport" data-uid="lnk18" id="link_PlanForecast_MonthReport"><polygon fill="#181818" points="1337.3366,517.0198,1336.0847,524.1214,1342.1584,528.0085,1343.4104,520.9069,1337.3366,517.0198" style="stroke:#181818;stroke-width:1;"/><path d="M1342.1584,528.0085 C1349.6264,545.0276 1353.1499,553.0574 1361.3795,571.8122" fill="none" style="stroke:#181818;stroke-width:1;"/><text fill="#000000" font-family="sans-serif" font-size="13" lengthAdjust="spacing" textLength="8.2202" x="1352.3795" y="568.3805">3</text></g><g class="link" data-entity-1="MonthCalculator" data-entity-2="MonthPlan" data-uid="lnk19" id="link_MonthCalculator_MonthPlan"><polygon fill="#181818" points="1214.1202,613.3204,1223.7232,611.1336,1218.1243,610.3259,1218.9321,604.727,1214.1202,613.3204" style="stroke:#181818;stroke-width:1;"/><path d="M1597.5038,484.0306 C1481.028,513.4074 1308.7438,558.0297 1280,572 C1257.2118,583.0757 1239.1912,594.5712 1218.9252,609.727" fill="none" style="stroke:#181818;stroke-width:1;stroke-dasharray:7,7;"/><text fill="#000000" font-family="sans-serif" font-size="13" lengthAdjust="spacing" textLength="71.043" x="1393" y="549.5684">&#1087;&#1088;&#1080;&#1085;&#1080;&#1084;&#1072;&#1077;&#1090;</text></g><g class="link" data-entity-1="MonthCalculator" data-entity-2="MonthReport" data-uid="lnk20" id="link_MonthCalculator_MonthReport"><polygon fill="#181818" points="1523.7411,596.4029,1533.4303,594.6365,1527.8719,593.5857,1528.9227,588.0273,1523.7411,596.4029" style="stroke:#181818;stroke-width:1;"/><path d="M1673.4186,484.08 C1649.1588,503.9526 1615.0143,531.3164 1584,554 C1564.7725,568.0628 1548.9907,579.1823 1528.698,593.0222" fill="none" style="stroke:#181818;stroke-width:1;stroke-dasharray:7,7;"/><text fill="#000000" font-family="sans-serif" font-size="13" lengthAdjust="spacing" textLength="75.4419" x="1609" y="549.5684">&#1074;&#1086;&#1079;&#1074;&#1088;&#1072;&#1097;&#1072;&#1077;&#1090;</text></g><g class="link" data-entity-1="PlanService" data-entity-2="MonthCalculator" data-uid="lnk21" id="link_PlanService_MonthCalculator"><polygon fill="#181818" points="1647.6328,427.8724,1641.11,420.4931,1643.0852,425.7939,1637.7845,427.7692,1647.6328,427.8724" style="stroke:#181818;stroke-width:1;"/><path d="M851.1569,151.337 C943.3615,171.9003 1063.0809,201.1971 1167,235 C1346.0124,293.2294 1544.3905,380.6852 1642.1757,425.3782" fill="none" style="stroke:#181818;stroke-width:1;"/></g><g class="link" data-entity-1="PlanService" data-entity-2="IPlanRepository" data-uid="lnk22" id="link_PlanService_IPlanRepository"><polygon fill="#181818" points="528.5198,243.4362,538.161,241.4247,532.5778,240.5151,533.4873,234.9319,528.5198,243.4362" style="stroke:#181818;stroke-width:1;"/><path d="M616.5704,180.0549 C587.4714,201.0012 560.2663,220.5842 533.3894,239.9309" fill="none" style="stroke:#181818;stroke-width:1;"/></g><g class="link" data-entity-1="PlanService" data-entity-2="PlanForecast" data-uid="lnk23" id="link_PlanService_PlanForecast"><polygon fill="#181818" points="1205.812,394.8076,1199.946,386.8963,1201.4594,392.3469,1196.0088,393.8604,1205.812,394.8076" style="stroke:#181818;stroke-width:1;"/><path d="M812.817,180.2481 C905.7381,230.0727 1040.7892,302.9506 1158,368 C1173.4963,376.6001 1184.6013,382.8162 1200.5889,391.8548" fill="none" style="stroke:#181818;stroke-width:1;stroke-dasharray:7,7;"/><text fill="#000000" font-family="sans-serif" font-size="13" lengthAdjust="spacing" textLength="50.4702" x="1111" y="293.0684">&#1089;&#1086;&#1079;&#1076;&#1072;&#1105;&#1090;</text></g><g class="link" data-entity-1="PlanService" data-entity-2="PlanComparison" data-uid="lnk24" id="link_PlanService_PlanComparison"><polygon fill="#181818" points="725.4357,234.8042,727.3942,225.1521,724.3541,229.9226,719.5836,226.8825,725.4357,234.8042" style="stroke:#181818;stroke-width:1;"/><path d="M713.3578,180.2908 C717.3115,198.1356 720.3076,211.6586 724.1378,228.9463" fill="none" style="stroke:#181818;stroke-width:1;stroke-dasharray:7,7;"/><text fill="#000000" font-family="sans-serif" font-size="13" lengthAdjust="spacing" textLength="50.4702" x="723" y="212.5684">&#1089;&#1086;&#1079;&#1076;&#1072;&#1105;&#1090;</text></g><g class="link" data-entity-1="PlanComparison" data-entity-2="PlanForecast" data-uid="lnk25" id="link_PlanComparison_PlanForecast"><polygon fill="#181818" points="1218.6226,394.8567,1212.5873,387.0737,1214.2179,392.4904,1208.8012,394.1211,1218.6226,394.8567" style="stroke:#181818;stroke-width:1;"/><path d="M850.7743,313.7991 C920.7117,328.5017 1012.279,346.7837 1094,360 C1122.2981,364.5765 1130.7957,358.9638 1158,368 C1178.4441,374.7907 1193.9459,381.5997 1213.337,392.0171" fill="none" style="stroke:#181818;stroke-width:1;"/><text fill="#000000" font-family="sans-serif" font-size="13" lengthAdjust="spacing" textLength="8.2202" x="1209.6226" y="391.425">2</text></g><g class="link" data-entity-1="IPlanRepository" data-entity-2="FinancialPlan" data-uid="lnk26" id="link_IPlanRepository_FinancialPlan"><polygon fill="#181818" points="922.6729,394.7902,916.7212,386.9431,918.2939,392.377,912.86,393.9496,922.6729,394.7902" style="stroke:#181818;stroke-width:1;"/><path d="M582.4158,332.5784 C593.0009,335.7498 603.6399,338.6279 614,341 C722.5075,365.8443 757.2745,333.1687 863,368 C883.1999,374.6549 898.4014,381.4145 917.418,391.8943" fill="none" style="stroke:#181818;stroke-width:1;stroke-dasharray:7,7;"/></g><g class="link" data-entity-1="IPlanRepository" data-entity-2="PlanSummary" data-uid="lnk27" id="link_IPlanRepository_PlanSummary"><polygon fill="#181818" points="468,419.4971,472,410.4971,468,414.4971,464,410.4971,468,419.4971" style="stroke:#181818;stroke-width:1;"/><path d="M468,332.6145 C468,359.7036 468,388.0792 468,413.4971" fill="none" style="stroke:#181818;stroke-width:1;stroke-dasharray:7,7;"/></g><!--SRC=[jLNDRjD04BxdAPQS4aWYABSAWgf0gaYq3GbmdzYJP5Lxr-okGqE9H3aW8Gw8Dwag41mAl8BpHep_4jkngOJ48P4yCplpVT_EpDxo5CnSO0uifM-OTj60W9e-vS831Iwp7D3wm1Z59xx1WIN5cBz1ThSsvpOoT3spP2ww4rIwLlF0EeKPidgV2vihj8nKdSVI1IxgxBp6ucoCl20i3ixG0H7P6RjphWqORgtOaHHctfE-C6oVSVf_oEx78GERB8S-j-FFOt2H39gmYLbiEl5Gq4SFz9myDbhS1ITsHMarMGSZ1Fj4ECkdN9i7aJd4qQMmrGRYnfp2U-Q3C9p8HfXYsr1n2ujrNWXkUbARehtFpz0E7Rhe6GAtZ-Nh8IeBKzAxO7hWMBu3f6WAARLWmoEWBIQtv3SV8xIGBs3Ye6vIvYZJ23sfIYh4zZJx21Se_1rwBq7nC5qfasgEHw1cN1Ij8TG8eRTxekT8NN6LYIl3hHZnv8pewwoTdTke-0BjLNftSifDjR_lKmUBsI5u5J5RyS8swKlgTj0RzVxMRR7EtJZmkJGq1pU1eO5nyagKXfGgKi7i6D6kfBQgcEK3ptEuHNCgSmCTAZ16jGZ78H4W5IJgpR3riYebroXTsZ7Oc7AbJOjffELYfw6nasifuk0nBE8-RyRVePoDvex04HBVTK4jkzkLqE1HtjpUIQwGPWtL50Zu8BI6TwCvKLscHFwvy26QihgFTdfdItKZNgX82U3KjUcsCbd7aOxbfsDVzV4yi8HFYkg6zLlTDGCnLPHV-PRn5MORP_pAuGOhX2_nDMmmC06DGp3pvl-y8E9I2gxJUTijjaej_w3TRhTP_NuzyuRii-0w-BQ-M7zUVrX_OlTQRAz5ZrfkSUHE9IkwkFWxdMu-w-_rk-17y9D-ry4bLNXVVIJPxdJeAlWLV0-kwEZb-cDoB3l1xNQt-EJi-8iAPFrXoHorVRQ-Y6f-fOfV2jNIwCmKbCPd_260-buztxo3dOlg5YQWB2BJ5Ny0]--></g></svg>