<svg xmlns="http://www.w3.org/2000/svg" xmlns:xlink="http://www.w3.org/1999/xlink" contentStyleType="text/css" data-diagram-type="CLASS" height="800px" preserveAspectRatio="none" style="width:1662px;height:800px;background:#FFFFFF;" version="1.1" viewBox="0 0 1662 800" width="1662px" zoomAndPan="magnify"><defs/><g><!--cluster Findirector--><g class="cluster" data-entity="Findirector" data-source-line="6" data-uid="ent0004" id="cluster_Findirector"><path d="M16.5,4 L96.1133,4 A3.75,3.75 0 0 1 98.6133,6.5 L105.6133,26.4883 L1652.5,26.4883 A2.5,2.5 0 0 1 1655,28.9883 L1655,790.5 A2.5,2.5 0 0 1 1652.5,793 L16.5,793 A2.5,2.5 0 0 1 14,790.5 L14,6.5 A2.5,2.5 0 0 1 16.5,4" fill="none" style="stroke:#000000;stroke-width:1.5;"/><line style="stroke:#000000;stroke-width:1.5;" x1="14" x2="105.6133" y1="26.4883" y2="26.4883"/><text fill="#000000" font-family="sans-serif" font-size="14" font-weight="bold" lengthAdjust="spacing" textLength="78.6133" x="18" y="19.5352">Findirector</text></g><!--cluster Domain--><g class="cluster" data-entity="Domain" data-source-line="5" data-uid="ent0002" id="cluster_Domain"><path d="M569.5,368 L626.0967,368 A3.75,3.75 0 0 1 628.5967,370.5 L635.5967,390.4883 L1644.5,390.4883 A2.5,2.5 0 0 1 1647,392.9883 L1647,782.5 A2.5,2.5 0 0 1 1644.5,785 L569.5,785 A2.5,2.5 0 0 1 567,782.5 L567,370.5 A2.5,2.5 0 0 1 569.5,368" fill="none" style="stroke:#000000;stroke-width:1.5;"/><line style="stroke:#000000;stroke-width:1.5;" x1="567" x2="635.5967" y1="390.4883" y2="390.4883"/><text fill="#000000" font-family="sans-serif" font-size="14" font-weight="bold" lengthAdjust="spacing" textLength="55.5967" x="571" y="383.5352">Domain</text></g><!--cluster Application--><g class="cluster" data-entity="Application" data-source-line="44" data-uid="ent0009" id="cluster_Application"><path d="M24.5,31 L107.5107,31 A3.75,3.75 0 0 1 110.0107,33.5 L117.0107,53.4883 L556.5,53.4883 A2.5,2.5 0 0 1 559,55.9883 L559,502.5 A2.5,2.5 0 0 1 556.5,505 L24.5,505 A2.5,2.5 0 0 1 22,502.5 L22,33.5 A2.5,2.5 0 0 1 24.5,31" fill="none" style="stroke:#000000;stroke-width:1.5;"/><line style="stroke:#000000;stroke-width:1.5;" x1="22" x2="117.0107" y1="53.4883" y2="53.4883"/><text fill="#000000" font-family="sans-serif" font-size="14" font-weight="bold" lengthAdjust="spacing" textLength="82.0107" x="26" y="46.5352">Application</text></g><!--class FinancialPlan--><g class="entity" data-entity="FinancialPlan" data-source-line="6" data-uid="ent0003" id="entity_FinancialPlan"><rect fill="#F1F1F1" height="122.4414" rx="2.5" ry="2.5" style="stroke:#181818;stroke-width:0.5;" width="272.5996" x="575.5" y="395"/><ellipse cx="663.6187" cy="411" fill="#ADD1B2" rx="11" ry="11" style="stroke:#181818;stroke-width:1;"/><path d="M666.0918,417.1431 Q665.5107,417.4419 664.8716,417.5913 Q664.2324,417.7407 663.5269,417.7407 Q661.02,417.7407 659.7002,416.0889 Q658.3804,414.437 658.3804,411.3159 Q658.3804,408.1865 659.7002,406.5347 Q661.02,404.8828 663.5269,404.8828 Q664.2324,404.8828 664.8799,405.0322 Q665.5273,405.1816 666.0918,405.4805 L666.0918,408.2031 Q665.4609,407.6221 664.8674,407.3523 Q664.2739,407.0825 663.6431,407.0825 Q662.2983,407.0825 661.6135,408.1492 Q660.9287,409.2158 660.9287,411.3159 Q660.9287,413.4077 661.6135,414.4744 Q662.2983,415.541 663.6431,415.541 Q664.2739,415.541 664.8674,415.2712 Q665.4609,415.0015 666.0918,414.4204 Z " fill="#000000"/><text fill="#000000" font-family="sans-serif" font-size="14" lengthAdjust="spacing" textLength="87.8623" x="684.1187" y="416.291">FinancialPlan</text><line style="stroke:#181818;stroke-width:0.5;" x1="576.5" x2="847.0996" y1="427" y2="427"/><text fill="#000000" font-family="sans-serif" font-size="14" lengthAdjust="spacing" text-decoration="underline" textLength="155.4014" x="581.5" y="444.5352">+MonthCount : int = 3</text><text fill="#000000" font-family="sans-serif" font-size="14" lengthAdjust="spacing" textLength="68.9268" x="581.5" y="461.0234">+Id : Guid</text><text fill="#000000" font-family="sans-serif" font-size="14" lengthAdjust="spacing" textLength="102.9287" x="581.5" y="477.5117">+Name : string</text><text fill="#000000" font-family="sans-serif" font-size="14" lengthAdjust="spacing" textLength="167.9795" x="581.5" y="494">+OpeningCash : decimal</text><text fill="#000000" font-family="sans-serif" font-size="14" lengthAdjust="spacing" textLength="260.5996" x="581.5" y="510.4883">+Months : IReadOnlyList&lt;MonthPlan&gt;</text></g><!--class MonthPlan--><g class="entity" data-entity="MonthPlan" data-source-line="13" data-uid="ent0005" id="entity_MonthPlan"><rect fill="#F1F1F1" height="122.4414" rx="2.5" ry="2.5" style="stroke:#181818;stroke-width:0.5;" width="163.6416" x="819" y="613.5"/><ellipse cx="861.0743" cy="629.5" fill="#ADD1B2" rx="11" ry="11" style="stroke:#181818;stroke-width:1;"/><path d="M863.5474,635.6431 Q862.9664,635.9419 862.3272,636.0913 Q861.688,636.2407 860.9825,636.2407 Q858.4756,636.2407 857.1558,634.5889 Q855.836,632.937 855.836,629.8159 Q855.836,626.6865 857.1558,625.0347 Q858.4756,623.3828 860.9825,623.3828 Q861.688,623.3828 862.3355,623.5322 Q862.983,623.6816 863.5474,623.9805 L863.5474,626.7031 Q862.9166,626.1221 862.323,625.8523 Q861.7295,625.5825 861.0987,625.5825 Q859.754,625.5825 859.0691,626.6492 Q858.3843,627.7158 858.3843,629.8159 Q858.3843,631.9077 859.0691,632.9744 Q859.754,634.041 861.0987,634.041 Q861.7295,634.041 862.323,633.7712 Q862.9166,633.5015 863.5474,632.9204 Z " fill="#000000"/><text fill="#000000" font-family="sans-serif" font-size="14" lengthAdjust="spacing" textLength="71.4766" x="881.0908" y="634.791">MonthPlan</text><line style="stroke:#181818;stroke-width:0.5;" x1="820" x2="981.6416" y1="645.5" y2="645.5"/><text fill="#000000" font-family="sans-serif" font-size="14" lengthAdjust="spacing" textLength="100.208" x="825" y="663.0352">+Quantity : int</text><text fill="#000000" font-family="sans-serif" font-size="14" lengthAdjust="spacing" textLength="109.5801" x="825" y="679.5234">+Price : decimal</text><text fill="#000000" font-family="sans-serif" font-size="14" lengthAdjust="spacing" textLength="135.4268" x="825" y="696.0117">+UnitCost : decimal</text><text fill="#000000" font-family="sans-serif" font-size="14" lengthAdjust="spacing" textLength="151.6416" x="825" y="712.5">+FixedCosts : decimal</text><text fill="#000000" font-family="sans-serif" font-size="14" lengthAdjust="spacing" textLength="150.6094" x="825" y="728.9883">+PaidNowPercent : int</text></g><!--class MonthCalculator--><g class="entity" data-entity="MonthCalculator" data-source-line="20" data-uid="ent0006" id="entity_MonthCalculator"><rect fill="#F1F1F1" height="56.4883" rx="2.5" ry="2.5" style="stroke:#181818;stroke-width:0.5;" width="465.373" x="866.5" y="428"/><ellipse cx="1038.9673" cy="444" fill="#ADD1B2" rx="11" ry="11" style="stroke:#181818;stroke-width:1;"/><path d="M1041.4404,450.1431 Q1040.8594,450.4419 1040.2202,450.5913 Q1039.5811,450.7407 1038.8755,450.7407 Q1036.3687,450.7407 1035.0488,449.0889 Q1033.729,447.437 1033.729,444.3159 Q1033.729,441.1865 1035.0488,439.5347 Q1036.3687,437.8828 1038.8755,437.8828 Q1039.5811,437.8828 1040.2285,438.0322 Q1040.876,438.1816 1041.4404,438.4805 L1041.4404,441.2031 Q1040.8096,440.6221 1040.2161,440.3523 Q1039.6226,440.0825 1038.9917,440.0825 Q1037.647,440.0825 1036.9622,441.1492 Q1036.2773,442.2158 1036.2773,444.3159 Q1036.2773,446.4077 1036.9622,447.4744 Q1037.647,448.541 1038.9917,448.541 Q1039.6226,448.541 1040.2161,448.2712 Q1040.8096,448.0015 1041.4404,447.4204 Z " fill="#000000"/><text fill="#000000" font-family="sans-serif" font-size="14" lengthAdjust="spacing" textLength="111.9385" x="1059.4673" y="449.291">MonthCalculator</text><line style="stroke:#181818;stroke-width:0.5;" x1="867.5" x2="1330.873" y1="460" y2="460"/><text fill="#000000" font-family="sans-serif" font-size="14" lengthAdjust="spacing" textLength="453.373" x="872.5" y="477.5352">+Calculate(plan, openingCash, openingReceivables) : MonthReport</text></g><!--class MonthReport--><g class="entity" data-entity="MonthReport" data-source-line="23" data-uid="ent0007" id="entity_MonthReport"><rect fill="#F1F1F1" height="204.8828" rx="2.5" ry="2.5" style="stroke:#181818;stroke-width:0.5;" width="234.6943" x="1091.5" y="572"/><ellipse cx="1160.4473" cy="588" fill="#ADD1B2" rx="11" ry="11" style="stroke:#181818;stroke-width:1;"/><path d="M1162.9204,594.1431 Q1162.3394,594.4419 1161.7002,594.5913 Q1161.061,594.7407 1160.3555,594.7407 Q1157.8486,594.7407 1156.5288,593.0889 Q1155.209,591.437 1155.209,588.3159 Q1155.209,585.1865 1156.5288,583.5347 Q1157.8486,581.8828 1160.3555,581.8828 Q1161.061,581.8828 1161.7085,582.0322 Q1162.356,582.1816 1162.9204,582.4805 L1162.9204,585.2031 Q1162.2896,584.6221 1161.696,584.3523 Q1161.1025,584.0825 1160.4717,584.0825 Q1159.127,584.0825 1158.4421,585.1492 Q1157.7573,586.2158 1157.7573,588.3159 Q1157.7573,590.4077 1158.4421,591.4744 Q1159.127,592.541 1160.4717,592.541 Q1161.1025,592.541 1161.696,592.2712 Q1162.2896,592.0015 1162.9204,591.4204 Z " fill="#000000"/><text fill="#000000" font-family="sans-serif" font-size="14" lengthAdjust="spacing" textLength="88.2998" x="1180.9473" y="593.291">MonthReport</text><line style="stroke:#181818;stroke-width:0.5;" x1="1092.5" x2="1325.1943" y1="604" y2="604"/><text fill="#000000" font-family="sans-serif" font-size="14" lengthAdjust="spacing" textLength="133.9707" x="1097.5" y="621.5352">+Revenue : decimal</text><text fill="#000000" font-family="sans-serif" font-size="14" lengthAdjust="spacing" textLength="169.9414" x="1097.5" y="638.0234">+VariableCosts : decimal</text><text fill="#000000" font-family="sans-serif" font-size="14" lengthAdjust="spacing" textLength="151.6416" x="1097.5" y="654.5117">+FixedCosts : decimal</text><text fill="#000000" font-family="sans-serif" font-size="14" lengthAdjust="spacing" textLength="124.0791" x="1097.5" y="671">+Margin : decimal</text><text fill="#000000" font-family="sans-serif" font-size="14" lengthAdjust="spacing" textLength="167.1934" x="1097.5" y="687.4883">+CashReceipts : decimal</text><text fill="#000000" font-family="sans-serif" font-size="14" lengthAdjust="spacing" textLength="161.2734" x="1097.5" y="703.9766">+ClosingCash : decimal</text><text fill="#000000" font-family="sans-serif" font-size="14" lengthAdjust="spacing" textLength="206.4727" x="1097.5" y="720.4648">+ClosingReceivables : decimal</text><text fill="#000000" font-family="sans-serif" font-size="14" lengthAdjust="spacing" textLength="204.4219" x="1097.5" y="736.9531">+Expenses : decimal {derived}</text><text fill="#000000" font-family="sans-serif" font-size="14" lengthAdjust="spacing" textLength="177.3721" x="1097.5" y="753.4414">+Profit : decimal {derived}</text><text fill="#000000" font-family="sans-serif" font-size="14" lengthAdjust="spacing" textLength="222.6943" x="1097.5" y="769.9297">+FundingGap : decimal {derived}</text></g><!--class PlanForecast--><g class="entity" data-entity="PlanForecast" data-source-line="35" data-uid="ent0008" id="entity_PlanForecast"><rect fill="#F1F1F1" height="122.4414" rx="2.5" ry="2.5" style="stroke:#181818;stroke-width:0.5;" width="289.4229" x="1349.5" y="395"/><ellipse cx="1447.4043" cy="411" fill="#ADD1B2" rx="11" ry="11" style="stroke:#181818;stroke-width:1;"/><path d="M1449.8774,417.1431 Q1449.2964,417.4419 1448.6572,417.5913 Q1448.0181,417.7407 1447.3125,417.7407 Q1444.8057,417.7407 1443.4858,416.0889 Q1442.166,414.437 1442.166,411.3159 Q1442.166,408.1865 1443.4858,406.5347 Q1444.8057,404.8828 1447.3125,404.8828 Q1448.0181,404.8828 1448.6655,405.0322 Q1449.313,405.1816 1449.8774,405.4805 L1449.8774,408.2031 Q1449.2466,407.6221 1448.6531,407.3523 Q1448.0596,407.0825 1447.4287,407.0825 Q1446.084,407.0825 1445.3992,408.1492 Q1444.7144,409.2158 1444.7144,411.3159 Q1444.7144,413.4077 1445.3992,414.4744 Q1446.084,415.541 1447.4287,415.541 Q1448.0596,415.541 1448.6531,415.2712 Q1449.2466,415.0015 1449.8774,414.4204 Z " fill="#000000"/><text fill="#000000" font-family="sans-serif" font-size="14" lengthAdjust="spacing" textLength="85.1143" x="1467.9043" y="416.291">PlanForecast</text><line style="stroke:#181818;stroke-width:0.5;" x1="1350.5" x2="1637.9229" y1="427" y2="427"/><text fill="#000000" font-family="sans-serif" font-size="14" lengthAdjust="spacing" textLength="277.4229" x="1355.5" y="444.5352">+Months : IReadOnlyList&lt;MonthReport&gt;</text><text fill="#000000" font-family="sans-serif" font-size="14" lengthAdjust="spacing" textLength="211.8389" x="1355.5" y="461.0234">+TotalProfit : decimal {derived}</text><text fill="#000000" font-family="sans-serif" font-size="14" lengthAdjust="spacing" textLength="206.1377" x="1355.5" y="477.5117">+FinalCash : decimal {derived}</text><text fill="#000000" font-family="sans-serif" font-size="14" lengthAdjust="spacing" textLength="251.3369" x="1355.5" y="494">+FinalReceivables : decimal {derived}</text><text fill="#000000" font-family="sans-serif" font-size="14" lengthAdjust="spacing" textLength="230.7881" x="1355.5" y="510.4883">+FundingNeed : decimal {derived}</text></g><!--class PlanService--><g class="entity" data-entity="PlanService" data-source-line="45" data-uid="ent0010" id="entity_PlanService"><rect fill="#F1F1F1" height="122.4414" rx="2.5" ry="2.5" style="stroke:#181818;stroke-width:0.5;" width="320.5674" x="229.5" y="58"/><ellipse cx="347.7651" cy="74" fill="#ADD1B2" rx="11" ry="11" style="stroke:#181818;stroke-width:1;"/><path d="M350.2383,80.1431 Q349.6572,80.4419 349.0181,80.5913 Q348.3789,80.7407 347.6733,80.7407 Q345.1665,80.7407 343.8467,79.0889 Q342.5269,77.437 342.5269,74.3159 Q342.5269,71.1865 343.8467,69.5347 Q345.1665,67.8828 347.6733,67.8828 Q348.3789,67.8828 349.0264,68.0322 Q349.6738,68.1816 350.2383,68.4805 L350.2383,71.2031 Q349.6074,70.6221 349.0139,70.3523 Q348.4204,70.0825 347.7896,70.0825 Q346.4448,70.0825 345.76,71.1492 Q345.0752,72.2158 345.0752,74.3159 Q345.0752,76.4077 345.76,77.4744 Q346.4448,78.541 347.7896,78.541 Q348.4204,78.541 349.0139,78.2712 Q349.6074,78.0015 350.2383,77.4204 Z " fill="#000000"/><text fill="#000000" font-family="sans-serif" font-size="14" lengthAdjust="spacing" textLength="75.5371" x="368.2651" y="79.291">PlanService</text><line style="stroke:#181818;stroke-width:0.5;" x1="230.5" x2="549.0674" y1="90" y2="90"/><text fill="#000000" font-family="sans-serif" font-size="14" lengthAdjust="spacing" textLength="204.8252" x="235.5" y="107.5352">+Forecast(plan) : PlanForecast</text><text fill="#000000" font-family="sans-serif" font-size="14" lengthAdjust="spacing" textLength="289.6182" x="235.5" y="124.0234">+Compare(first, second) : PlanComparison</text><text fill="#000000" font-family="sans-serif" font-size="14" lengthAdjust="spacing" textLength="125.3438" x="235.5" y="140.5117">+Save(plan) &#171;&#1051;&#1056;4&#187;</text><text fill="#000000" font-family="sans-serif" font-size="14" lengthAdjust="spacing" textLength="308.5674" x="235.5" y="157">+List() : IReadOnlyList&lt;PlanSummary&gt; &#171;&#1051;&#1056;4&#187;</text><text fill="#000000" font-family="sans-serif" font-size="14" lengthAdjust="spacing" textLength="215.9336" x="235.5" y="173.4883">+Open(id) : FinancialPlan &#171;&#1051;&#1056;4&#187;</text></g><!--class IPlanRepository--><g class="entity" data-entity="IPlanRepository" data-source-line="52" data-uid="ent0011" id="entity_IPlanRepository"><rect fill="#F1F1F1" height="98.0859" rx="2.5" ry="2.5" style="stroke:#181818;stroke-width:0.5;" width="275.0537" x="30.5" y="239"/><ellipse cx="111.5947" cy="259.3105" fill="#B4A7E5" rx="11" ry="11" style="stroke:#181818;stroke-width:1;"/><path d="M108.0225,255.5757 L108.0225,253.4175 L115.4019,253.4175 L115.4019,255.5757 L112.9365,255.5757 L112.9365,263.6523 L115.4019,263.6523 L115.4019,265.8105 L108.0225,265.8105 L108.0225,263.6523 L110.4878,263.6523 L110.4878,255.5757 Z " fill="#000000"/><text fill="#000000" font-family="sans-serif" font-size="12" font-style="italic" lengthAdjust="spacing" textLength="35.2148" x="166.6694" y="255.6016">&#171;&#1051;&#1056;4&#187;</text><text fill="#000000" font-family="sans-serif" font-size="14" font-style="italic" lengthAdjust="spacing" textLength="104.3643" x="132.0947" y="271.668">IPlanRepository</text><line style="stroke:#181818;stroke-width:0.5;" x1="31.5" x2="304.5537" y1="279.6211" y2="279.6211"/><text fill="#000000" font-family="sans-serif" font-size="14" lengthAdjust="spacing" textLength="79.8301" x="36.5" y="297.1563">+Save(plan)</text><text fill="#000000" font-family="sans-serif" font-size="14" lengthAdjust="spacing" textLength="263.0537" x="36.5" y="313.6445">+List() : IReadOnlyList&lt;PlanSummary&gt;</text><text fill="#000000" font-family="sans-serif" font-size="14" lengthAdjust="spacing" textLength="163.3037" x="36.5" y="330.1328">+Get(id) : FinancialPlan?</text></g><!--class PlanComparison--><g class="entity" data-entity="PlanComparison" data-source-line="57" data-uid="ent0012" id="entity_PlanComparison"><rect fill="#F1F1F1" height="105.9531" rx="2.5" ry="2.5" style="stroke:#181818;stroke-width:0.5;" width="227.0518" x="323.5" y="235"/><ellipse cx="377.6235" cy="251" fill="#ADD1B2" rx="11" ry="11" style="stroke:#181818;stroke-width:1;"/><path d="M380.0967,257.1431 Q379.5156,257.4419 378.8765,257.5913 Q378.2373,257.7407 377.5317,257.7407 Q375.0249,257.7407 373.7051,256.0889 Q372.3853,254.437 372.3853,251.3159 Q372.3853,248.1865 373.7051,246.5347 Q375.0249,244.8828 377.5317,244.8828 Q378.2373,244.8828 378.8848,245.0322 Q379.5322,245.1816 380.0967,245.4805 L380.0967,248.2031 Q379.4658,247.6221 378.8723,247.3523 Q378.2788,247.0825 377.6479,247.0825 Q376.3032,247.0825 375.6184,248.1492 Q374.9336,249.2158 374.9336,251.3159 Q374.9336,253.4077 375.6184,254.4744 Q376.3032,255.541 377.6479,255.541 Q378.2788,255.541 378.8723,255.2712 Q379.4658,255.0015 380.0967,254.4204 Z " fill="#000000"/><text fill="#000000" font-family="sans-serif" font-size="14" lengthAdjust="spacing" textLength="110.3047" x="398.1235" y="256.291">PlanComparison</text><line style="stroke:#181818;stroke-width:0.5;" x1="324.5" x2="549.5518" y1="267" y2="267"/><text fill="#000000" font-family="sans-serif" font-size="14" lengthAdjust="spacing" textLength="141.9346" x="329.5" y="284.5352">+First : FinancialPlan</text><text fill="#000000" font-family="sans-serif" font-size="14" lengthAdjust="spacing" textLength="196.0957" x="329.5" y="301.0234">+FirstForecast : PlanForecast</text><text fill="#000000" font-family="sans-serif" font-size="14" lengthAdjust="spacing" textLength="160.8906" x="329.5" y="317.5117">+Second : FinancialPlan</text><text fill="#000000" font-family="sans-serif" font-size="14" lengthAdjust="spacing" textLength="215.0518" x="329.5" y="334">+SecondForecast : PlanForecast</text></g><!--class PlanSummary--><g class="entity" data-entity="PlanSummary" data-source-line="63" data-uid="ent0013" id="entity_PlanSummary"><rect fill="#F1F1F1" height="81.5977" rx="2.5" ry="2.5" style="stroke:#181818;stroke-width:0.5;" width="123.3486" x="106.5" y="415"/><ellipse cx="121.5" cy="435.3105" fill="#ADD1B2" rx="11" ry="11" style="stroke:#181818;stroke-width:1;"/><path d="M123.9731,441.4536 Q123.3921,441.7524 122.7529,441.9019 Q122.1138,442.0513 121.4082,442.0513 Q118.9014,442.0513 117.5815,440.3994 Q116.2617,438.7476 116.2617,435.6265 Q116.2617,432.4971 117.5815,430.8452 Q118.9014,429.1934 121.4082,429.1934 Q122.1138,429.1934 122.7612,429.3428 Q123.4087,429.4922 123.9731,429.791 L123.9731,432.5137 Q123.3423,431.9326 122.7488,431.6628 Q122.1553,431.3931 121.5244,431.3931 Q120.1797,431.3931 119.4949,432.4597 Q118.8101,433.5264 118.8101,435.6265 Q118.8101,437.7183 119.4949,438.7849 Q120.1797,439.8516 121.5244,439.8516 Q122.1553,439.8516 122.7488,439.5818 Q123.3423,439.312 123.9731,438.731 Z " fill="#000000"/><text fill="#000000" font-family="sans-serif" font-size="12" font-style="italic" lengthAdjust="spacing" textLength="35.2148" x="163.5669" y="431.6016">&#171;&#1051;&#1056;4&#187;</text><text fill="#000000" font-family="sans-serif" font-size="14" lengthAdjust="spacing" textLength="91.3486" x="135.5" y="447.668">PlanSummary</text><line style="stroke:#181818;stroke-width:0.5;" x1="107.5" x2="228.8486" y1="455.6211" y2="455.6211"/><text fill="#000000" font-family="sans-serif" font-size="14" lengthAdjust="spacing" textLength="68.9268" x="112.5" y="473.1563">+Id : Guid</text><text fill="#000000" font-family="sans-serif" font-size="14" lengthAdjust="spacing" textLength="102.9287" x="112.5" y="489.6445">+Name : string</text></g><g class="link" data-entity-1="FinancialPlan" data-entity-2="MonthPlan" data-uid="lnk14" id="link_FinancialPlan_MonthPlan"><polygon fill="#181818" points="764.396,517.0198,765.3286,524.1704,772.2878,526.0598,771.3552,518.9092,764.396,517.0198" style="stroke:#181818;stroke-width:1;"/><path d="M772.2878,526.0598 C798.5066,556.0936 822.2691,583.3135 848.502,613.3634" fill="none" style="stroke:#181818;stroke-width:1;"/><text fill="#000000" font-family="sans-serif" font-size="13" lengthAdjust="spacing" textLength="93.2979" x="798" y="549.5684">&#1084;&#1077;&#1089;&#1103;&#1094;&#1099; 1, 2, 3</text><text fill="#000000" font-family="sans-serif" font-size="13" lengthAdjust="spacing" textLength="8.2202" x="839.502" y="609.9318">3</text></g><g class="link" data-entity-1="PlanForecast" data-entity-2="MonthReport" data-uid="lnk15" id="link_PlanForecast_MonthReport"><polygon fill="#181818" points="1414.9901,517.0198,1407.7927,517.4641,1405.4345,524.2787,1412.6319,523.8344,1414.9901,517.0198" style="stroke:#181818;stroke-width:1;"/><path d="M1405.4345,524.2787 C1378.0885,545.052 1356.377,561.5452 1326.606,584.1607" fill="none" style="stroke:#181818;stroke-width:1;"/><text fill="#000000" font-family="sans-serif" font-size="13" lengthAdjust="spacing" textLength="8.2202" x="1327.606" y="580.729">3</text></g><g class="link" data-entity-1="MonthCalculator" data-entity-2="MonthPlan" data-uid="lnk16" id="link_MonthCalculator_MonthPlan"><polygon fill="#181818" points="956.1602,613.1859,965.1858,609.2441,959.5346,609.4963,959.2824,603.845,956.1602,613.1859" style="stroke:#181818;stroke-width:1;"/><path d="M1073.9232,484.4199 C1044.474,516.6206 998.7986,566.5637 960.2095,608.7583" fill="none" style="stroke:#181818;stroke-width:1;stroke-dasharray:7,7;"/><text fill="#000000" font-family="sans-serif" font-size="13" lengthAdjust="spacing" textLength="71.043" x="1025" y="549.5684">&#1087;&#1088;&#1080;&#1085;&#1080;&#1084;&#1072;&#1077;&#1090;</text></g><g class="link" data-entity-1="MonthCalculator" data-entity-2="MonthReport" data-uid="lnk17" id="link_MonthCalculator_MonthReport"><polygon fill="#181818" points="1157.3366,571.8171,1156.826,561.9815,1155.0718,567.3595,1149.6938,565.6053,1157.3366,571.8171" style="stroke:#181818;stroke-width:1;"/><path d="M1112.9316,484.4199 C1124.2626,506.7214 1138.2789,534.308 1154.6188,566.468" fill="none" style="stroke:#181818;stroke-width:1;stroke-dasharray:7,7;"/><text fill="#000000" font-family="sans-serif" font-size="13" lengthAdjust="spacing" textLength="75.4419" x="1149" y="549.5684">&#1074;&#1086;&#1079;&#1074;&#1088;&#1072;&#1097;&#1072;&#1077;&#1090;</text></g><g class="link" data-entity-1="PlanService" data-entity-2="MonthCalculator" data-uid="lnk18" id="link_PlanService_MonthCalculator"><polygon fill="#181818" points="1041.6728,427.9131,1035.2443,420.4516,1037.1521,425.7771,1031.8266,427.6849,1041.6728,427.9131" style="stroke:#181818;stroke-width:1;"/><path d="M517.1642,180.0846 C672.3784,253.4228 922.7367,371.7162 1036.2479,425.3499" fill="none" style="stroke:#181818;stroke-width:1;"/></g><g class="link" data-entity-1="PlanService" data-entity-2="IPlanRepository" data-uid="lnk19" id="link_PlanService_IPlanRepository"><polygon fill="#181818" points="231.8492,238.9693,241.4461,236.7554,235.8449,235.9635,236.6368,230.3624,231.8492,238.9693" style="stroke:#181818;stroke-width:1;"/><path d="M310.1665,180.0549 C284.435,199.4115 261.0666,216.9904 236.644,235.3624" fill="none" style="stroke:#181818;stroke-width:1;"/></g><g class="link" data-entity-1="PlanService" data-entity-2="PlanForecast" data-uid="lnk20" id="link_PlanService_PlanForecast"><polygon fill="#181818" points="1397.1389,394.9154,1391.1246,387.1162,1392.7407,392.5373,1387.3196,394.1534,1397.1389,394.9154" style="stroke:#181818;stroke-width:1;"/><path d="M550.587,148.5086 C743.034,185.6863 1073.0757,259.099 1341,368 C1359.683,375.5939 1373.6241,382.2011 1391.861,392.0617" fill="none" style="stroke:#181818;stroke-width:1;stroke-dasharray:7,7;"/><text fill="#000000" font-family="sans-serif" font-size="13" lengthAdjust="spacing" textLength="50.4702" x="1267" y="293.0684">&#1089;&#1086;&#1079;&#1076;&#1072;&#1105;&#1090;</text></g><g class="link" data-entity-1="PlanService" data-entity-2="PlanComparison" data-uid="lnk21" id="link_PlanService_PlanComparison"><polygon fill="#181818" points="422.3102,234.8042,423.7224,225.0571,420.9556,229.9912,416.0215,227.2244,422.3102,234.8042" style="stroke:#181818;stroke-width:1;"/><path d="M406.9681,180.2908 C411.9903,198.1356 415.8193,211.7409 420.6847,229.0286" fill="none" style="stroke:#181818;stroke-width:1;stroke-dasharray:7,7;"/><text fill="#000000" font-family="sans-serif" font-size="13" lengthAdjust="spacing" textLength="50.4702" x="419" y="212.5684">&#1089;&#1086;&#1079;&#1076;&#1072;&#1105;&#1090;</text></g><g class="link" data-entity-1="PlanComparison" data-entity-2="PlanForecast" data-uid="lnk22" id="link_PlanComparison_PlanForecast"><polygon fill="#181818" points="1404.9695,394.8816,1398.9474,387.0884,1400.5689,392.5079,1395.1494,394.1294,1404.9695,394.8816" style="stroke:#181818;stroke-width:1;"/><path d="M550.6458,304.2506 C679.3053,320.8769 895.3127,346.8623 1082,360 C1110.7205,362.0211 1313.2822,360.2107 1341,368 C1362.7686,374.1174 1379.4557,381.1192 1399.6888,392.0331" fill="none" style="stroke:#181818;stroke-width:1;"/><text fill="#000000" font-family="sans-serif" font-size="13" lengthAdjust="spacing" textLength="8.2202" x="1395.9695" y="391.4499">2</text></g><g class="link" data-entity-1="IPlanRepository" data-entity-2="FinancialPlan" data-uid="lnk23" id="link_IPlanRepository_FinancialPlan"><polygon fill="#181818" points="622.6729,394.7902,616.7212,386.9431,618.2939,392.377,612.86,393.9496,622.6729,394.7902" style="stroke:#181818;stroke-width:1;"/><path d="M298.0918,337.0353 C303.4372,338.4682 308.7544,339.7989 314,341 C422.5075,365.8443 457.2745,333.1687 563,368 C583.1999,374.6549 598.4014,381.4145 617.418,391.8943" fill="none" style="stroke:#181818;stroke-width:1;stroke-dasharray:7,7;"/></g><g class="link" data-entity-1="IPlanRepository" data-entity-2="PlanSummary" data-uid="lnk24" id="link_IPlanRepository_PlanSummary"><polygon fill="#181818" points="168,414.9384,172,405.9384,168,409.9384,164,405.9384,168,414.9384" style="stroke:#181818;stroke-width:1;"/><path d="M168,337.0141 C168,361.7186 168,385.4848 168,408.9384" fill="none" style="stroke:#181818;stroke-width:1;stroke-dasharray:7,7;"/></g><!--SRC=[ZLNDRjD04BxdAPQSKaWgQ3bL9QWAf8f4sv00zwazJLUrTwtTTMYe8b4EI8W3uio5HwWg41mAl8BpHipw9x4Tct9e9SzyC_FDjpEJEu62YG_CWvaC3TC-6X3Gq6TS1A30Puu7MkyPe_XnQ73WI37cRv3TRvno5ndwWPan7_rZLBhH2C0vWmcoPfyBbojqZ5IRJwGFN3JPHOCbsHXvGJWSlA478hOpTkz26p3ScRC3ASnfJuR2i1t6wVyZjfr01YvPzaFk9f-7u2CPD74JayHq5A2WZnxeK_Auw70VlCGLfzLa7OmGt2FXpPvnRNPZi-NH9TXyIN5fpkWz3q4OJit6d1BRK747otLU2cvwKfkolS_FqRKENVOCWRk7ylKGbODPq-jaUk0veGUaQ4Ofis0h8A9j9bVDBpz6w22Vmh67UeConvb664XLKI6nPzb7E4KHhhNt2XItwIexgU_n0DI4YxBLKeqP1kiHFK_gcgTCNRdUoeYdvzI-pjlPXOkAJz6TPsydJxYfz_T3cc0nsOUW1hCIpuv9NzAqWrwgzwzfItJk9i0Nqj0Ut4Q65iOhAb49gLIafhD3HBUsjNdDBky5WSSTsbDPM6Yhm1ZLrAv3Aa0cI3oRTlJoAgNFA7swCTWwuKgRDjD8nyNDe8cJQoaIy1YccERQtOs-H5yVTbC5hR2jZJMfOqwXxuEQTSiXzaoqU5ohU8loEAi4RIAg4w2s1jPlNqvp4cAsGcODhmZ-Dwq4k8-cYilZjHbRIR8KsIfN3iovbbDP9VyurhiwEl7LXnU9fVsiQtBBmOxdhFW0TpiTrjnkvkxl3ejkek-BoyMdnVl5H_QWpRRQz8DGMBf2L7hUoaTpSxDRpFfdyJRw6VsYlvleYYgygmz9BoC5NKU_en_HDOLUBJwaOVdfxtIwvNEzvY-DKi5lInPQss6BoxZcDwhukLGjG-ScenAVyri2pQrcyK7Bmstp5gUY2f5x-hy0]--></g></svg>